<?xml version="1.0" ?><svg height="295px" version="1.1" viewBox="0 0 294 295" width="294px" xmlns="http://www.w3.org/2000/svg" xmlns:xlink="http://www.w3.org/1999/xlink"><title/><desc/><defs/><g fill="none" fill-rule="evenodd" id="Page-1" stroke="none" stroke-width="1"><g fill-rule="nonzero" id="order"><path d="M292.128,214.846 C289.786,212.502 285.985,212.502 283.644,214.846 L224.132,274.357 L224.132,6 C224.132,2.687 221.445,0 218.132,0 C214.819,0 212.132,2.687 212.132,6 L212.132,274.356 L152.619,214.844 C150.277,212.502 146.477,212.501 144.134,214.845 C141.791,217.188 141.791,220.987 144.135,223.33 L213.89,293.084 C215.061,294.255 216.597,294.841 218.132,294.841 C219.667,294.841 221.203,294.255 222.374,293.083 L292.128,223.329 C294.472,220.987 294.472,217.188 292.128,214.846 Z" fill="#FB4A5E" id="Shape"/><path d="M6.956,12 L187.093,12 C190.406,12 193.093,9.313 193.093,6 C193.093,2.687 190.406,0 187.093,0 L6.956,0 C3.643,0 0.956,2.687 0.956,6 C0.956,9.313 3.643,12 6.956,12 Z" fill="#000000" id="Shape"/><path d="M6.956,82.228 L187.093,82.228 C190.406,82.228 193.093,79.541 193.093,76.228 C193.093,72.915 190.406,70.228 187.093,70.228 L6.956,70.228 C3.643,70.228 0.956,72.915 0.956,76.228 C0.956,79.541 3.643,82.228 6.956,82.228 Z" fill="#000000" id="Shape"/><path d="M6.956,152.456 L187.093,152.456 C190.406,152.456 193.093,149.769 193.093,146.456 C193.093,143.143 190.406,140.456 187.093,140.456 L6.956,140.456 C3.643,140.456 0.956,143.143 0.956,146.456 C0.956,149.769 3.643,152.456 6.956,152.456 Z" fill="#000000" id="Shape"/><path d="M124.438,210.685 L6.956,210.685 C3.643,210.685 0.956,213.372 0.956,216.685 C0.956,219.998 3.643,222.685 6.956,222.685 L124.438,222.685 C127.751,222.685 130.438,219.998 130.438,216.685 C130.438,213.372 127.752,210.685 124.438,210.685 Z" fill="#000000" id="Shape"/><path d="M124.438,280.912 L6.956,280.912 C3.643,280.912 0.956,283.599 0.956,286.912 C0.956,290.225 3.643,292.912 6.956,292.912 L124.438,292.912 C127.751,292.912 130.438,290.225 130.438,286.912 C130.438,283.599 127.752,280.912 124.438,280.912 Z" fill="#000000" id="Shape"/></g></g></svg>